<svg width="24" height="24" viewBox="0 0 24 24" fill="none" xmlns="http://www.w3.org/2000/svg">
<path fill-rule="evenodd" clip-rule="evenodd" d="M4 9.5815V8.00019C4 4.68643 6.68637 2.00012 10.0001 2.00012H14.0001C17.3138 2.00013 20 4.6864 20 8.00007V14.0001L21.2505 15.8759C21.6232 16.435 21.3494 17.1953 20.7058 17.3884L18.3415 18.0977L21.6011 20.7646C22.0824 21.1584 22.1184 21.8817 21.6787 22.3214C21.2943 22.7058 20.6802 22.7336 20.2626 22.3856L19.8 22.0001H13.2452C13.7275 21.3985 14.1246 20.7258 14.4184 20.0001H17.4L15.9706 18.8089L14.6961 19.1913C14.894 18.4949 15 17.7598 15 17C15 15.4414 14.5543 13.987 13.7834 12.7571C13.9145 12.7862 14.0542 12.7892 14.1961 12.7608L17.1961 12.1608C17.6635 12.0674 18 11.6569 18 11.1803V9.21986C18 8.58882 17.4226 8.11553 16.8039 8.23928L13.8039 8.83928C13.3364 8.93277 13 9.34318 13 9.81986V11.7084C12.428 11.0604 11.7528 10.5057 11 10.0703V9.81986C11 9.34318 10.6635 8.93277 10.1961 8.83928L7.19609 8.23928C6.63068 8.1262 6.0999 8.5116 6.01252 9.06034C5.30937 9.14689 4.63446 9.32468 4 9.5815ZM8.99997 5.00006C8.99997 4.44778 9.44768 4.00006 9.99997 4.00006H14C14.5523 4.00006 15 4.44778 15 5.00006C15 5.55235 14.5523 6.00006 14 6.00006H9.99997C9.44768 6.00006 8.99997 5.55235 8.99997 5.00006ZM16 15.0001C16 14.4478 16.4477 14.0001 17 14.0001H18C18.5523 14.0001 19 14.4478 19 15.0001C19 15.5523 18.5523 16.0001 18 16.0001H17C16.4477 16.0001 16 15.5523 16 15.0001Z" fill="#FCA000"></path>
<path d="M7 23C10.3137 23 13 20.3137 13 17M7 23C3.68629 23 1 20.3137 1 17M7 23V11M7 23C7 23 3.75 20.4286 3.75 17C3.75 13.5714 7 11 7 11M7 23C7 23 10.25 20.4286 10.25 17C10.25 13.5714 7 11 7 11M13 17C13 13.6863 10.3137 11 7 11M13 17H1M7 11C3.68629 11 1 13.6863 1 17" stroke="#FCA000" stroke-width="2" stroke-linecap="round" stroke-linejoin="round"></path>
</svg>