<svg xmlns="http://www.w3.org/2000/svg" width="24" height="24" viewBox="0 0 24 24"><g fill="none" fill-rule="evenodd"><rect width="24" height="24"></rect><path fill="#687176" fill-rule="nonzero" d="M10,9.5 L10,3.5 C10,2.67157288 10.6715729,2 11.5,2 L11.5,2 C12.3284271,2 13,2.67157288 13,3.5 L13,9.5 L21.1467182,14.47855 C21.6767401,14.8024523 22,15.378843 22,16 L22,16 C22,16.3980643 21.6773051,16.7207592 21.2792408,16.7207592 C21.2017721,16.7207592 21.12481,16.70827 21.0513167,16.6837722 L13,14 L13,17 L12.5,19 L15.8101858,21.8373022 C15.9306626,21.940568 16,22.0913227 16,22.25 L16,22.25 C16,22.3708836 15.9020045,22.4688791 15.7811209,22.4688791 C15.7714464,22.4688791 15.7617826,22.4682377 15.752193,22.4669591 L12.25,22 L11.8745317,23.0012489 C11.7969636,23.208097 11.5663988,23.3128992 11.3595506,23.2353312 C11.2513813,23.1947677 11.1660318,23.1094182 11.1254683,23.0012489 L10.75,22 L7.24780698,22.4669591 C7.12798379,22.4829355 7.01789645,22.3987511 7.00192003,22.2789279 C7.00064142,22.2693383 7,22.2596745 7,22.25 L7,22.25 C7,22.0913227 7.06933738,21.940568 7.18981415,21.8373022 L10.5,19 L10,17 L10,14 L1.9486833,16.6837722 C1.57104632,16.8096512 1.16286598,16.6055611 1.03698699,16.2279241 C1.01248923,16.1544308 1,16.0774687 1,16 L1,16 C1,15.378843 1.32325985,14.8024523 1.85328183,14.47855 L10,9.5 Z"></path><path stroke="#0194F3" stroke-linecap="round" stroke-linejoin="round" stroke-width="2" d="M15,6 L15,6 C17.209139,6 19,7.790861 19,10 M15,2 L15,2 C19.418278,2 23,5.581722 23,10"></path></g></svg>