<svg width="24" height="24" viewBox="0 0 24 24" fill="none" xmlns="http://www.w3.org/2000/svg">
<path d="M14.5 16.2501L18.5103 22.2656C18.7901 22.6852 19.3385 22.8308 19.7896 22.6053L20.2243 22.388C20.6694 22.1654 20.8831 21.6494 20.7257 21.1773L19 16.0001L19.7929 15.2072C20.1834 14.8167 20.1834 14.1835 19.7929 13.793L19.2071 13.2072C18.8837 12.8838 18.394 12.8282 18.0134 13.0404L17.1493 10.4479L21.8613 4.85227C22.5053 4.0875 22.457 2.95707 21.75 2.25009C21.043 1.54311 19.9126 1.49475 19.1478 2.13877L13.5522 6.85084L10.9597 5.98666C11.1719 5.60608 11.1163 5.11635 10.7929 4.79298L10.2071 4.2072C9.81659 3.81667 9.18343 3.81667 8.7929 4.2072L8.00001 5.00009L2.8228 3.27435C2.35068 3.11698 1.8347 3.33071 1.61214 3.77582L1.3948 4.2105C1.16926 4.66159 1.3149 5.21002 1.73453 5.48977L5.97997 8.32007C6.61581 8.11237 7.29479 8.00006 8 8.00006C11.5898 8.00006 14.5 10.9102 14.5 14.5001V16.2501Z" fill="#30C5F7"></path>
<path d="M1.5 15.7713C1.47338 15.8238 1.44891 15.8778 1.42671 15.9333L1.34174 16.1458C1.21308 16.4674 1.26295 16.819 1.44806 17.0866L1.5 17.0001V15.7713Z" fill="#30C5F7"></path>
<path d="M5 21H11C11 22.6569 9.65685 24 8 24C6.34315 24 5 22.6569 5 21Z" fill="#30C5F7"></path>
<path d="M8.90503 9.07411C11.512 9.50571 13.5 11.7707 13.5 14.5V17.5L15 20V21.5C15 21.7761 14.7761 22 14.5 22H1.5C1.22386 22 1 21.7761 1 21.5V20L2.5 17.5V14.5C2.5 11.7707 4.48801 9.50571 7.09497 9.07411C7.25491 8.73481 7.60003 8.5 8 8.5C8.39997 8.5 8.74509 8.73481 8.90503 9.07411Z" fill="#30C5F7"></path>
</svg>