<svg width="24" height="24" viewBox="0 0 24 24" fill="none" xmlns="http://www.w3.org/2000/svg">
<path fill-rule="evenodd" clip-rule="evenodd" d="M3 9C2.44772 9 2 9.44772 2 10V21.5C2 21.7761 2.22386 22 2.5 22H4.48756C4.49443 22 4.5 21.9944 4.5 21.9876V21C4.5 20.1716 5.17157 19.5 6 19.5C6.82843 19.5 7.5 20.1716 7.5 21V21.9876C7.5 21.9944 7.50557 22 7.51244 22H14.5C14.7761 22 15 21.7761 15 21.5V15C15 14.4477 14.5523 14 14 14H10V10C10 9.44772 9.55228 9 9 9L8.77639 8.55279C8.607 8.214 8.26074 8 7.88197 8H4.11803C3.73926 8 3.393 8.214 3.22361 8.55279L3 9ZM3 13.5C3 13.2239 3.22386 13 3.5 13H4.5C4.77614 13 5 13.2239 5 13.5V14.5C5 14.7761 4.77614 15 4.5 15H3.5C3.22386 15 3 14.7761 3 14.5V13.5ZM7.5 13C7.22386 13 7 13.2239 7 13.5V14.5C7 14.7761 7.22386 15 7.5 15H8.5C8.77614 15 9 14.7761 9 14.5V13.5C9 13.2239 8.77614 13 8.5 13H7.5ZM3 16.5C3 16.2239 3.22386 16 3.5 16H4.5C4.77614 16 5 16.2239 5 16.5V17.5C5 17.7761 4.77614 18 4.5 18H3.5C3.22386 18 3 17.7761 3 17.5V16.5ZM7.5 16C7.22386 16 7 16.2239 7 16.5V17.5C7 17.7761 7.22386 18 7.5 18H8.5C8.77614 18 9 17.7761 9 17.5V16.5C9 16.2239 8.77614 16 8.5 16H7.5ZM3 10.5C3 10.2239 3.22386 10 3.5 10H4.5C4.77614 10 5 10.2239 5 10.5V11.5C5 11.7761 4.77614 12 4.5 12H3.5C3.22386 12 3 11.7761 3 11.5V10.5ZM7.5 10C7.22386 10 7 10.2239 7 10.5V11.5C7 11.7761 7.22386 12 7.5 12H8.5C8.77614 12 9 11.7761 9 11.5V10.5C9 10.2239 8.77614 10 8.5 10H7.5ZM11 15.5C11 15.2239 11.2239 15 11.5 15H13.5C13.7761 15 14 15.2239 14 15.5V16.5C14 16.7761 13.7761 17 13.5 17H11.5C11.2239 17 11 16.7761 11 16.5V15.5ZM11.5 18C11.2239 18 11 18.2239 11 18.5V19.5C11 19.7761 11.2239 20 11.5 20H13.5C13.7761 20 14 19.7761 14 19.5V18.5C14 18.2239 13.7761 18 13.5 18H11.5Z" fill="#931682"></path>
<path fill-rule="evenodd" clip-rule="evenodd" d="M20.1338 2.27358C20.5655 1.84183 21.2655 1.84183 21.6973 2.27358C22.1291 2.70534 22.1291 3.40535 21.6973 3.83711L19.3517 6.18275L20.9151 14.4364L20.1333 15.2182L17.0064 8.52796L15.8341 9.70032L14.8847 10.3146L14.8959 10.3258L15.0522 13.6092L14.6613 14.0001L12.9316 11.5784L12.5116 11.8502L12.1207 11.4593L12.3925 11.0393L9.97076 9.30949L10.3616 8.91861L13.645 9.07496L13.6563 9.08618L14.2706 8.1368L15.443 6.96435L15.4428 6.96412L8.7522 3.83707L9.53397 3.05531L17.7881 4.61883L17.7883 4.61907L20.1338 2.27358Z" fill="#931682"></path>
</svg>