<svg width="24" height="24" viewBox="0 0 24 24" fill="none" xmlns="http://www.w3.org/2000/svg">
<path d="M12 5.5C6 5.5 3 12 3 12C3 12 6 18.5 12 18.5C18 18.5 21 12 21 12C21 12 18 5.5 12 5.5ZM12 5.5V4M7 7L6 6M17 7L18 6" stroke="#0194F3" stroke-width="2" stroke-linecap="round" stroke-linejoin="round"></path>
<path fill-rule="evenodd" clip-rule="evenodd" d="M12 15C13.6569 15 15 13.6569 15 12C15 10.3431 13.6569 9 12 9C10.3431 9 9 10.3431 9 12C9 13.6569 10.3431 15 12 15Z" stroke="#0194F3" stroke-width="2" stroke-linecap="round" stroke-linejoin="round"></path>
<path fill-rule="evenodd" clip-rule="evenodd" d="M12 13.75C12.9665 13.75 13.75 12.9665 13.75 12C13.75 11.0335 12.9665 10.25 12 10.25C11.0335 10.25 10.25 11.0335 10.25 12C10.25 12.9665 11.0335 13.75 12 13.75Z" stroke="#0194F3" stroke-width="2" stroke-linecap="round" stroke-linejoin="round"></path>
</svg>