<svg xmlns="http://www.w3.org/2000/svg" width="24" height="24" viewBox="0 0 24 24"><g fill="none" fill-rule="evenodd"><rect width="24" height="24"></rect><circle cx="12" cy="12" r="12" fill="#FFF" fill-rule="nonzero"></circle><path fill="#4285F4" fill-rule="nonzero" d="M20.64,12.2045455 C20.64,11.5663636 20.5827273,10.9527273 20.4763636,10.3636364 L12,10.3636364 L12,13.845 L16.8436364,13.845 C16.635,14.97 16.0009091,15.9231818 15.0477273,16.5613636 L15.0477273,18.8195455 L17.9563636,18.8195455 C19.6581818,17.2527273 20.64,14.9454545 20.64,12.2045455 L20.64,12.2045455 Z"></path><path fill="#34A853" fill-rule="nonzero" d="M12,21 C14.43,21 16.4672727,20.1940909 17.9563636,18.8195455 L15.0477273,16.5613636 C14.2418182,17.1013636 13.2109091,17.4204545 12,17.4204545 C9.65590909,17.4204545 7.67181818,15.8372727 6.96409091,13.71 L3.95727273,13.71 L3.95727273,16.0418182 C5.43818182,18.9831818 8.48181818,21 12,21 L12,21 Z"></path><path fill="#FBBC05" fill-rule="nonzero" d="M6.96409091,13.71 C6.78409091,13.17 6.68181818,12.5931818 6.68181818,12 C6.68181818,11.4068182 6.78409091,10.83 6.96409091,10.29 L6.96409091,7.95818182 L3.95727273,7.95818182 C3.34772727,9.17318182 3,10.5477273 3,12 C3,13.4522727 3.34772727,14.8268182 3.95727273,16.0418182 L6.96409091,13.71 L6.96409091,13.71 Z"></path><path fill="#EA4335" fill-rule="nonzero" d="M12,6.57954545 C13.3213636,6.57954545 14.5077273,7.03363636 15.4404545,7.92545455 L18.0218182,5.34409091 C16.4631818,3.89181818 14.4259091,3 12,3 C8.48181818,3 5.43818182,5.01681818 3.95727273,7.95818182 L6.96409091,10.29 C7.67181818,8.16272727 9.65590909,6.57954545 12,6.57954545 L12,6.57954545 Z"></path></g></svg>