<svg width="24" height="24" viewBox="0 0 24 24" fill="none" xmlns="http://www.w3.org/2000/svg">
<path fill-rule="evenodd" clip-rule="evenodd" d="M2 7C2 6.51797 2.11369 6.06249 2.31571 5.65891C3.07293 3.52678 5.10816 2 7.5 2C9.20794 2 10.734 2.7785 11.7428 4H15.5V3C15.5 2.44772 15.9477 2 16.5 2C17.0523 2 17.5 2.44772 17.5 3V4H19C20.6569 4 22 5.34315 22 7V19C22 20.6569 20.6569 22 19 22H5C3.34315 22 2 20.6569 2 19V7ZM4 11.7428C4.95094 12.5282 6.17037 13 7.5 13C9.20794 13 10.734 12.2215 11.7428 11H20V19C20 19.5523 19.5523 20 19 20H5C4.44772 20 4 19.5523 4 19V11.7428ZM4 7.5C4 5.567 5.567 4 7.5 4C9.433 4 11 5.567 11 7.5C11 9.433 9.433 11 7.5 11C5.567 11 4 9.433 4 7.5Z" fill="#235D9F"></path>
<path d="M9 15.5C9.55228 15.5 10 15.0523 10 14.5C10 13.9477 9.55228 13.5 9 13.5C8.44772 13.5 8 13.9477 8 14.5C8 15.0523 8.44772 15.5 9 15.5Z" fill="#235D9F"></path>
<path d="M7.5 6V7.58882L8.5 8M14 15.009C13.0943 15.0272 12.2355 15.4742 11.6273 16.244C11.3464 16.5941 11.0864 16.9655 10.8489 17.3556C10.7954 17.4396 10.7432 17.5206 10.6915 17.6002C10.1505 18.4314 9.6087 18.75 9 18.75C8.3913 18.75 7.97653 18.4314 7.43584 17.6002C7.38432 17.5206 7.33195 17.4396 7.27845 17.3556C7.04092 16.9656 6.82331 16.5942 6.54246 16.244C5.89459 15.4229 4.96528 14.9688 4 15.0017M14 15H18M18 15L16 12.5005M18 15L16 17.5005" stroke="#235D9F" stroke-width="2" stroke-linecap="round" stroke-linejoin="round"></path>
</svg>