<svg width="24" height="24" viewBox="0 0 24 24" fill="none" xmlns="http://www.w3.org/2000/svg">
<path fill-rule="evenodd" clip-rule="evenodd" d="M2 5.5C2 3.567 3.567 2 5.5 2H13V6.45685C12.5809 6.16489 12.0755 6 11.5451 6C10.1395 6 9 7.13947 9 8.54508V8.68466C9 9.15813 9.12385 9.60826 9.3442 10H2V5.5ZM11.2379 12H2V15C2 16.6569 3.34315 18 5 18H13V13.135L11.6402 14.2682C11.2159 14.6218 10.5853 14.5645 10.2318 14.1402C9.87821 13.7159 9.93554 13.0853 10.3598 12.7318L11.2379 12ZM15 13.135V18H19C20.6569 18 22 16.6569 22 15V12H16.762L17.6402 12.7318C18.0645 13.0853 18.1218 13.7159 17.7682 14.1402C17.4147 14.5645 16.7841 14.6218 16.3598 14.2682L15 13.135ZM18.6558 10H22V5.5C22 3.567 20.433 2 18.5 2H15V6.45685C15.4191 6.16489 15.9245 6 16.4549 6C17.8605 6 19 7.13947 19 8.54508V8.68466C19 9.15813 18.8762 9.60826 18.6558 10ZM13 19.5V22H15V19.5H19C20.2732 19.5 21.3876 18.8202 22 17.8038V18.5C22 20.433 20.433 22 18.5 22H5.5C3.567 22 2 20.433 2 18.5V17.8038C2.61245 18.8202 3.72684 19.5 5 19.5H13ZM11 8.54508C11 8.24404 11.244 8 11.5451 8C11.7515 8 11.9403 8.11665 12.0326 8.30132L12.7047 9.64539L11.5186 9.34887C11.2138 9.27268 11 8.99883 11 8.68466V8.54508ZM16.4814 9.34888L15.2953 9.64539L15.9674 8.30132C16.0597 8.11665 16.2485 8 16.4549 8C16.756 8 17 8.24404 17 8.54508V8.68466C17 8.99883 16.7862 9.27268 16.4814 9.34888Z" fill="#FF474E"></path>
</svg>