<svg width="24" height="24" viewBox="0 0 24 24" fill="none" xmlns="http://www.w3.org/2000/svg">
<path fill-rule="evenodd" clip-rule="evenodd" d="M5.32128 8.49859L9.98965 12.6068L18.1819 2.25861C18.8675 1.39258 20.1254 1.24632 20.9914 1.93193C21.8575 2.61754 22.0037 3.87539 21.3181 4.74143L11.8181 16.7414C11.1072 17.6395 9.78865 17.7581 8.92877 17.0014L2.67877 11.5014C1.84955 10.7717 1.76889 9.50798 2.4986 8.67876C3.22831 7.84955 4.49207 7.76888 5.32128 8.49859ZM4.7202 18.9617L6.81538 16.4737L8.26814 17.7522C8.86427 18.2768 9.60735 18.5209 10.3395 18.4987L7.77985 21.5383C7.06835 22.3832 5.80665 22.4913 4.96175 21.7798C4.11686 21.0683 4.00871 19.8066 4.7202 18.9617ZM12.6022 17.3621C12.1499 17.9334 11.5337 18.2945 10.8755 18.4342L15.57 21.8648C16.4618 22.5165 17.7131 22.3219 18.3648 21.4301C19.0165 20.5382 18.8219 19.287 17.9301 18.6352L13.9163 15.7021L12.6022 17.3621ZM10 10C10 10 7.00003 8.00002 7.00003 6.00002C7.00003 4.00002 8.50003 3.00002 10 3.00002C11.5 3.00002 13 4.00002 13 6.00002C13 8.00002 10 10 10 10ZM11 6.00002C11 6.5523 10.5523 7.00002 10 7.00002C9.44774 7.00002 9.00003 6.5523 9.00003 6.00002C9.00003 5.44773 9.44774 5.00002 10 5.00002C10.5523 5.00002 11 5.44773 11 6.00002Z" fill="#FF6D6A"></path>
</svg>