<svg width="24" height="24" viewBox="0 0 24 24" fill="none" xmlns="http://www.w3.org/2000/svg">
<path d="M22.5 5.55087C21.7131 5.90461 20.8789 6.13752 20.0246 6.24197C20.9244 5.69455 21.5975 4.83295 21.9184 3.81798C21.0728 4.32828 20.1475 4.68761 19.1826 4.88041C17.8471 3.43696 15.7253 3.08384 14.0068 4.01903C12.2883 4.95423 11.4005 6.9452 11.8411 8.8757C8.2599 8.69347 5.08792 6.95026 2.96087 4.29934C1.81965 6.30197 2.40422 8.86149 4.29662 10.1479C3.61267 10.1263 2.94369 9.93886 2.34541 9.60118V9.65619C2.34368 11.7422 3.7901 13.5395 5.80145 13.9506C5.43147 14.0549 5.04914 14.1069 4.66522 14.1053C4.39283 14.1052 4.12107 14.0788 3.85362 14.0263C4.41601 15.8114 6.03447 17.0338 7.87778 17.0657C6.35224 18.2841 4.46794 18.9453 2.52802 18.943C2.18444 18.9433 1.84115 18.9226 1.5 18.8811C3.47053 20.1668 5.763 20.8495 8.10435 20.8478C16.0309 20.8478 20.3628 14.1741 20.3628 8.38403C20.3628 8.19492 20.3594 8.00238 20.3493 7.81671C21.1946 7.19933 21.9232 6.43171 22.5 5.55087Z" fill="#1DA1F2"></path>
</svg>